<svg xmlns="http://www.w3.org/2000/svg" viewBox="0 0 366.86 366.86"><defs><style>.cls-1{fill:#fff;}</style></defs><title>Recurso 12</title><g id="Capa_2" data-name="Capa 2"><g id="Capa_1-2" data-name="Capa 1"><polygon class="cls-1" points="203.75 169.67 236.25 150.91 185.11 121.39 145.25 98.37 145.25 135.89 145.25 163.41 145.25 203.45 179.92 183.43 203.75 169.67"/><path class="cls-1" d="M183.43,0A183.43,183.43,0,1,0,366.86,183.43,183.43,183.43,0,0,0,183.43,0Zm-62,310.51V249.85l23.83-13.76v33.15l91.65-52.91-28.71-16.58L232,186l52.54,30.33ZM227.59,183.43l-23.83,13.76.14.08-58.65,33.86V231l-23.83,13.76V56.35l163.14,94.19Z"/></g></g></svg>